<mxfile host="app.diagrams.net" modified="2022-06-20T06:28:59.878Z" agent="5.0 (Macintosh)" etag="qQziOBd6TG9jmkYp7Fa5" version="20.0.1" type="github">
  <diagram id="REd2az73bZLLk8C03Xev" name="Page-1">
    <mxGraphModel dx="946" dy="600" grid="1" gridSize="10" guides="1" tooltips="1" connect="1" arrows="1" fold="1" page="1" pageScale="1" pageWidth="827" pageHeight="1169" background="#DAD2D8" math="0" shadow="0">
      <root>
        <mxCell id="0" />
        <mxCell id="1" parent="0" />
      </root>
    </mxGraphModel>
  </diagram>
</mxfile>
